<mxfile host="app.diagrams.net" modified="2024-03-27T10:30:13.550Z" agent="Mozilla/5.0 (Windows NT 10.0; Win64; x64) AppleWebKit/537.36 (KHTML, like Gecko) Chrome/123.0.0.0 Safari/537.36" version="24.2.0" etag="LG7gXCMAIn16lkyvG-eU" type="github">
  <diagram name="Page-1" id="5VOekYa0wZCWH28fAlYT">
    <mxGraphModel>
      <root>
        <mxCell id="0" />
        <mxCell id="1" parent="0" />
      </root>
    </mxGraphModel>
  </diagram>
</mxfile>
